<?xml version="1.0" standalone="no"?>
<!DOCTYPE svg PUBLIC "-//W3C//DTD SVG 20010904//EN"
 "http://www.w3.org/TR/2001/REC-SVG-20010904/DTD/svg10.dtd">
<svg version="1.0" xmlns="http://www.w3.org/2000/svg"
 width="1237.000000pt" height="1280.000000pt" viewBox="0 0 1237.000000 1280.000000"
 preserveAspectRatio="xMidYMid meet">
<metadata>
Created by potrace 1.15, written by Peter Selinger 2001-2017
</metadata>
<g transform="translate(0.000000,1280.000000) scale(0.100000,-0.100000)"
fill="#000000" stroke="none">
<path d="M6115 12793 c-114 -5 -431 -33 -555 -49 -942 -122 -1823 -446 -2608
-960 -662 -434 -1283 -1018 -1755 -1649 -825 -1103 -1225 -2397 -1193 -3860
28 -1348 378 -2497 1079 -3545 594 -887 1383 -1606 2261 -2061 713 -369 1449
-569 2391 -651 194 -17 1011 -16 1310 0 1225 70 2267 234 3090 487 61 18 149
46 198 60 51 15 87 32 87 39 0 11 -439 1715 -456 1767 -4 14 -29 9 -187 -42
-1023 -332 -1941 -483 -3137 -519 -1018 -30 -1708 94 -2395 430 -1107 542
-1924 1625 -2203 2925 -83 384 -118 688 -129 1125 -23 937 213 1776 713 2537
414 629 1003 1202 1600 1559 748 446 1575 645 2514 604 632 -27 1144 -129
1631 -325 931 -376 1627 -1046 1959 -1885 171 -434 255 -880 267 -1420 9 -415
-30 -704 -153 -1125 -207 -714 -505 -1252 -806 -1456 -119 -81 -270 -127 -380
-117 -122 12 -168 118 -168 388 0 153 15 269 71 535 35 169 616 3152 705 3625
19 102 37 193 40 203 5 16 -46 17 -980 17 l-986 0 -5 -22 c-8 -36 -75 -392
-75 -401 0 -4 -42 29 -92 73 -293 256 -683 436 -1103 511 -116 21 -160 23
-410 23 -233 0 -304 -4 -422 -22 -500 -75 -926 -243 -1308 -516 -312 -223
-632 -554 -871 -900 -380 -551 -620 -1168 -713 -1836 -36 -260 -45 -391 -45
-670 0 -295 12 -421 60 -652 113 -542 399 -1063 804 -1468 424 -424 906 -649
1500 -701 230 -21 570 -1 830 47 614 113 1175 391 1580 781 66 64 122 114 124
112 1 -2 31 -46 67 -98 219 -324 600 -579 987 -661 351 -75 891 0 1302 180
537 235 1036 689 1444 1312 375 574 611 1174 716 1822 83 509 77 1158 -16
1789 -153 1048 -542 1935 -1184 2707 -131 157 -488 515 -640 641 -903 749
-1954 1163 -3260 1283 -332 31 -778 43 -1095 29z m509 -5258 c186 -33 322
-100 447 -224 218 -216 311 -505 296 -921 -13 -340 -113 -651 -303 -935 -240
-360 -489 -545 -829 -617 -33 -7 -129 -12 -215 -12 -182 0 -285 20 -415 84
-234 114 -437 394 -506 699 -40 176 -35 430 12 650 85 390 362 844 649 1060
106 80 190 126 307 167 172 62 379 80 557 49z"/>
</g>
</svg>
